<svg xmlns="http://www.w3.org/2000/svg" viewBox="0 0 224.698 78">
  <defs>
    <linearGradient id="a" x1="-1.911" x2="2.985" y1="-.841" y2="1.414" gradientUnits="objectBoundingBox">
      <stop offset="0" stop-color="#99d633"/>
      <stop offset=".5" stop-color="#3c9"/>
      <stop offset="1" stop-color="#273470"/>
    </linearGradient>
    <linearGradient href="#a" id="d" x1="-3.569" x2="1.328" y1="-1.605" y2=".651"/>
    <linearGradient href="#a" id="e" x1="-3.047" x2="1.849" y1="-.904" y2="1.352"/>
    <linearGradient href="#a" id="f" x1="-2.89" x2="2.007" y1="-1.292" y2=".964"/>
    <linearGradient href="#a" id="g" x1="-2.4" x2="2.497" y1="-1.066" y2="1.189"/>
    <linearGradient href="#a" id="h" x1="-.992" x2="2.679" y1="-.418" y2="1.273"/>
    <linearGradient href="#a" id="i" x1="-1.512" x2="2.159" y1="-.197" y2="1.495"/>
    <linearGradient href="#a" id="j" x1="-.914" x2="2.758" y1=".079" y2="1.771"/>
    <linearGradient href="#a" id="k" x1="-3.405" x2="1.493" y1="-1.068" y2="1.187"/>
    <linearGradient href="#a" id="l" x1=".347" x2="3.285" y1=".199" y2="1.552"/>
    <linearGradient href="#a" id="m" x1="-.905" x2="2.767" y1=".083" y2="1.775"/>
    <linearGradient href="#a" id="n" x1="-2.119" x2="2.778" y1="-.476" y2="1.779"/>
    <linearGradient href="#a" id="o" x1="-5.644" x2=".486" y1="-2.998" y2=".741"/>
    <linearGradient href="#a" id="p" x1="-3.495" x2="2.636" y1="-1.687" y2="2.053"/>
    <linearGradient href="#a" id="q" x1="-1.422" x2="3.175" y1="-.923" y2="1.882"/>
    <linearGradient href="#a" id="r" x1="-3.306" x2="2.825" y1="-2.072" y2="1.668"/>
    <linearGradient href="#a" id="s" x1="-1.683" x2="2.914" y1="-1.081" y2="1.723"/>
    <linearGradient href="#a" id="t" x1="-1.158" x2="2.521" y1="-.261" y2="1.983"/>
    <linearGradient id="b" x1=".261" x2=".624" y1="3.56" y2="-1.469" gradientUnits="objectBoundingBox">
      <stop offset="0" stop-color="#6cf"/>
      <stop offset=".5" stop-color="#6258a6"/>
      <stop offset="1" stop-color="#273470"/>
    </linearGradient>
    <linearGradient href="#b" id="u" x1=".163" x2=".526" y1="4.924" y2="-.103"/>
    <linearGradient href="#b" id="v" x1=".386" x2=".658" y1="1.825" y2="-1.945"/>
    <linearGradient href="#b" id="w" x1=".252" x2=".615" y1="4.182" y2="-.845"/>
    <linearGradient href="#b" id="x" x1=".417" x2=".689" y1="1.9" y2="-1.87"/>
    <linearGradient href="#b" id="y" x1=".485" x2=".703" y1=".956" y2="-2.06"/>
    <linearGradient href="#b" id="z" x1=".377" x2=".649" y1="2.455" y2="-1.314"/>
    <linearGradient href="#b" id="A" x1=".199" x2=".562" y1="4.922" y2="-.105"/>
    <linearGradient href="#b" id="B" x1=".437" x2=".709" y1="1.625" y2="-2.145"/>
    <linearGradient href="#b" id="C" x1=".261" x2=".624" y1="4.055" y2="-.972"/>
    <linearGradient href="#b" id="D" x1=".5" x2=".5" y1="3.045" y2="-1.927"/>
    <linearGradient href="#b" id="E" x1=".5" x2=".5" y1="4.901" y2="-.072"/>
    <linearGradient href="#b" id="F" x1=".5" x2=".5" y1="2.435" y2="-1.296"/>
    <linearGradient href="#b" id="G" x1=".5" x2=".5" y1=".934" y2="-2.05"/>
    <linearGradient href="#b" id="H" x1=".5" x2=".5" y1="3.785" y2="-1.187"/>
    <linearGradient href="#b" id="I" x1=".5" x2=".5" y1="1.809" y2="-1.921"/>
    <linearGradient href="#b" id="J" x1=".5" x2=".5" y1="3.046" y2="-1.928"/>
    <linearGradient href="#b" id="K" x1=".5" x2=".5" y1="2.794" y2="-2.177"/>
    <linearGradient id="c" x1="5.01" x2="-2.277" y1="-1.383" y2="2.039" gradientUnits="objectBoundingBox">
      <stop offset="0" stop-color="#fdbd4d"/>
      <stop offset=".5" stop-color="#f63"/>
      <stop offset="1" stop-color="#273470"/>
    </linearGradient>
    <linearGradient href="#c" id="L" x1="2.239" x2="-2.134" y1="-.082" y2="1.971"/>
    <linearGradient href="#c" id="M" x1="6.098" x2="-1.191" y1="-1.893" y2="1.528"/>
    <linearGradient href="#c" id="N" x1="3.384" x2="-2.081" y1="-1.088" y2="1.477"/>
    <linearGradient href="#c" id="O" x1="2.78" x2="-2.686" y1="-.805" y2="1.761"/>
    <linearGradient href="#c" id="P" x1="7.074" x2="-.212" y1="-2.353" y2="1.069"/>
    <linearGradient href="#c" id="Q" x1="5.075" x2="-2.211" y1="-1.414" y2="2.008"/>
    <linearGradient href="#c" id="R" x1="5.736" x2="-1.55" y1="-2.194" y2="1.228"/>
    <linearGradient href="#c" id="S" x1="2.081" x2="-1.781" y1="-.047" y2="1.9"/>
    <linearGradient href="#c" id="T" x1=".729" x2="-2.361" y1=".135" y2="1.692"/>
    <linearGradient href="#c" id="U" x1="2.717" x2="-2.433" y1="-.868" y2="1.728"/>
    <linearGradient href="#c" id="V" x1="1.517" x2="-2.347" y1="-.262" y2="1.684"/>
    <linearGradient href="#c" id="W" x1="3.544" x2="-1.606" y1="-1.284" y2="1.312"/>
    <linearGradient href="#c" id="X" x1="2.631" x2="-1.233" y1="-.324" y2="1.623"/>
    <linearGradient href="#c" id="Y" x1="2.003" x2="-1.86" y1="-.007" y2="1.94"/>
    <linearGradient href="#c" id="Z" x1="4.125" x2="-1.025" y1="-1.077" y2="1.518"/>
    <linearGradient href="#c" id="aa" x1="3.022" x2="-2.127" y1="-1.021" y2="1.574"/>
    <linearGradient href="#c" id="ab" x1="4.681" x2="-.469" y1="-1.857" y2=".738"/>
  </defs>
  <path fill="#3c9" d="m36.041 26.53-11.448 6.611v13.22l11.448 6.612 11.446-6.608V33.141Z"/>
  <path fill="url(#a)" d="M71.464 20.91v7.932l-6.87-3.965Z"/>
  <path fill="url(#d)" d="M64.249 52.97l6.869 3.965v-7.93Z"/>
  <path fill="url(#e)" d="m68.1 46.359 -6.869 3.967v-7.932Z"/>
  <path fill="url(#f)" d="M72.392 35.37v7.932l-6.869 -3.965Z"/>
  <path fill="url(#g)" d="M56.651 56.847v7.932l-6.869 -3.965Z"/>
  <path fill="url(#h)" d="m57.794 51.643 -9.16 -5.286 9.16 -5.29Z"/>
  <path fill="url(#i)" d="m57.795 52.97 -9.16 5.29V47.684Z"/>
  <path fill="url(#j)" d="m57.792 39.749 -9.158 5.286v-10.572Z"/>
  <path fill="url(#k)" d="m58.5 70.318 -6.868 3.967v-7.932Z"/>
  <path fill="url(#l)" d="m47.487 46.361 -11.446 -6.612 11.446 -6.611Z"/>
  <path fill="url(#m)" d="m46.344 61.077 -9.158 5.286v-10.572Z"/>
  <path fill="url(#n)" d="m45.199 74.035 -6.868 3.965v-7.932Z"/>
  <path fill="url(#o)" d="m70.021 61.775 -6.869 3.967v-7.932Z"/>
  <path fill="url(#p)" d="m68.1 33.142 -6.869 3.967v-7.932Z"/>
  <path fill="url(#q)" d="M57.794 27.852v10.576l-9.16 -5.29Z"/>
  <path fill="url(#r)" d="M45.202 62.891v7.932l-6.869 -3.967Z"/>
  <path fill="url(#s)" d="m46.343 59.756 -9.157 -5.286 9.157 -5.29Z"/>
  <path fill="url(#t)" d="m36.041 39.75 11.446 6.612 -11.446 6.608Z"/>
  <path fill="url(#b)" d="m69.334 17.031 -6.869 3.965v-7.93Z"/>
  <path fill="url(#u)" d="m58.082 5.46 -6.871 3.967v-7.932Z"/>
  <path fill="url(#v)" d="m57.796 26.529 -9.162 5.286V21.241Z"/>
  <path fill="url(#w)" d="m45.2 14.545 -6.869 -3.965 6.869 -3.967Z"/>
  <path fill="url(#x)" d="M46.344 19.744V30.319l-9.158 -5.286Z"/>
  <path fill="url(#y)" d="M36.041 26.53v13.22L24.593 33.141Z"/>
  <path fill="url(#z)" d="m34.897 23.709 -9.158 -5.286 9.158 -5.29Z"/>
  <path fill="url(#A)" d="m33.75 7.932 -6.87 -3.965 6.87 -3.967Z"/>
  <path fill="url(#B)" d="m23.449 31.816 -9.158 -5.29 9.158 -5.285Z"/>
  <path fill="url(#C)" d="M19.76 6.039v7.932l-6.869 -3.965Z"/>
  <path fill="url(#D)" d="m56.647 22.651 -6.871 -3.967 6.871 -3.967Z"/>
  <path fill="url(#E)" d="m45.2 3.967 -6.869 3.965v-7.932Z"/>
  <path fill="url(#F)" d="m46.344 18.417 -9.158 5.286v-10.568Z"/>
  <path fill="url(#G)" d="m47.487 33.141 -11.446 6.611v-13.22Z"/>
  <path fill="url(#H)" d="m33.753 12.814 -6.871 3.967v-7.932Z"/>
  <path fill="url(#I)" d="m34.896 25.033 -9.158 5.286v-10.575Z"/>
  <path fill="url(#J)" d="m22.3 18.684 -6.87 3.965v-7.93Z"/>
  <path fill="url(#K)" d="m7.556 24.637 -6.87 -3.965 6.87 -3.967Z"/>
  <path fill="url(#c)" d="m33.751 78.001 -6.871 -3.965 6.871 -3.967Z"/>
  <path fill="url(#L)" d="M36.041 39.75v13.22l-11.448 -6.612Z"/>
  <path fill="url(#M)" d="M22.3 66.763v7.932l-6.87 -3.966Z"/>
  <path fill="url(#N)" d="m23.449 46.362 -9.158 5.286v-10.576Z"/>
  <path fill="url(#O)" d="m23.449 33.142 -9.158 5.29v-10.58Z"/>
  <path fill="url(#P)" d="M9.616 59.401v7.93l-6.871 -3.965Z"/>
  <path fill="url(#Q)" d="M10.851 28.899v7.932l-6.871 -3.965Z"/>
  <path fill="url(#R)" d="m6.871 40.093 -6.871 3.965v-7.93Z"/>
  <path fill="url(#S)" d="m34.894 66.367 -9.16 -5.286 9.16 -5.29Z"/>
  <path fill="url(#T)" d="m36.041 39.75 -11.448 6.608v-13.22Z"/>
  <path fill="url(#U)" d="m33.75 67.425 -6.871 3.967v-7.932Z"/>
  <path fill="url(#V)" d="m34.892 54.467 -9.157 5.29v-10.582Z"/>
  <path fill="url(#W)" d="m22.299 60.814 -6.869 3.965v-7.93Z"/>
  <path fill="url(#X)" d="M23.449 47.683v10.573l-9.158 -5.286Z"/>
  <path fill="url(#Y)" d="M23.449 34.459v10.573l-9.158 -5.283Z"/>
  <path fill="url(#Z)" d="m10.85 50.326 -6.871 -3.967 6.871 -3.965Z"/>
  <path fill="url(#aa)" d="m7.145 26.531 -6.869 3.965v-7.932Z"/>
  <path fill="url(#ab)" d="m7.556 53.452 -6.871 3.965v-7.935Z"/>
  <path fill="currentColor" d="M203.759 35.834h-1v7.727h-3.673v-.049a2.7 2.7 0 00.606-.729 2.2 2.2 0 00.263-1.12 2.3 2.3 0 00-.1-.637 1.9 1.9 0 00-.324-.636 1.8 1.8 0 00-.594-.49 1.9 1.9 0 00-.906-.2 1.95 1.95 0 00-1.666.82 3.9 3.9 0 00-.6 2.327v.711h-1.31a1.2 1.2 0 01-.527-.1.8.8 0 01-.33-.269 1 1 0 01-.166-.422 3.4 3.4 0 01-.043-.557v-2.351h-1v2.8a1.4 1.4 0 01-.067.484.54.54 0 01-.208.27.8.8 0 01-.349.116 4 4 0 01-.5.025h-.824a1.2 1.2 0 01-.526-.1.8.8 0 01-.331-.269 1 1 0 01-.165-.422 3.3 3.3 0 01-.043-.557v-2.351h-1v2.8a1.4 1.4 0 01-.067.484.54.54 0 01-.208.27.8.8 0 01-.349.116 4 4 0 01-.5.025l-2.926-.012c-.367 0-.6-.071-.711-.213a1.25 1.25 0 01-.159-.724v-3.5h-1.947a3.4 3.4 0 00-.888.122 2.3 2.3 0 00-.814.4 2.15 2.15 0 00-.6.724 2.36 2.36 0 00-.233 1.1 2.05 2.05 0 00.245 1.066 1.9 1.9 0 00.594.634 2.3 2.3 0 00.735.31 3.2 3.2 0 00.68.085 3.9 3.9 0 001.262-.221 1.4 1.4 0 00.208.6 1.3 1.3 0 00.386.378 1.5 1.5 0 00.515.2 3 3 0 00.606.056h3.232a4 4 0 001.157-.147 1.1 1.1 0 00.691-.649 1.08 1.08 0 00.392.57 1.23 1.23 0 00.771.226h1a4 4 0 001.157-.147 1.1 1.1 0 00.692-.649 1.07 1.07 0 00.392.57 1.23 1.23 0 00.771.226h1.31v.135a6 6 0 00.11 1.194 2.4 2.4 0 00.373.906 1.73 1.73 0 00.692.575 2.5 2.5 0 001.065.2 2.2 2.2 0 00.839-.147 1.7 1.7 0 00.6-.391 1.6 1.6 0 00.361-.576 2 2 0 00.122-.686 2.3 2.3 0 00-.08-.551 1.3 1.3 0 00-.385-.612v-.049h4.3ZM182.441 42.3a3 3 0 01-.557.158 3 3 0 01-.581.061 1.44 1.44 0 01-1.035-.317 1.1 1.1 0 01-.325-.828 1.08 1.08 0 01.416-.944 1.68 1.68 0 011-.3h1.082Zm14.327.452a2.95 2.95 0 01.324-1.524 1.03 1.03 0 01.925-.532.97.97 0 01.686.275 1.13 1.13 0 01.294.863 2 2 0 01-.085.545 1.8 1.8 0 01-.282.563 1.6 1.6 0 01-.52.441 1.6 1.6 0 01-.79.177h-.551Zm1.99 3.625a1.03 1.03 0 01-.765.257 1.24 1.24 0 01-.631-.141 1 1 0 01-.374-.386 1.6 1.6 0 01-.178-.575 6 6 0 01-.043-.723v-.233h.906a1.65 1.65 0 01.716.129 1.2 1.2 0 01.4.3.8.8 0 01.178.361 2 2 0 01.036.3.98.98 0 01-.245.711m6.715-10.543h1.004v8.743h-1.004zM94.071 59.367h6.233v-1.016h-1.79a1.6 1.6 0 01-1.187-.4 1.4 1.4 0 01-.392-1.022 1.28 1.28 0 01.453-1.041 1.84 1.84 0 011.224-.38 3.4 3.4 0 01.661.055 5 5 0 01.5.129v-1.09a2 2 0 00-.453-.11 5 5 0 00-.747-.049 3.2 3.2 0 00-.949.147 2.6 2.6 0 00-.857.453 2.3 2.3 0 00-.625.771 2.4 2.4 0 00-.239 1.1 2.2 2.2 0 00.147.833 1.9 1.9 0 00.367.6h-2.73a8.5 8.5 0 01-2.951-.576v.99q.367.11.845.244t.9.3a3 3 0 01.71.384.63.63 0 01.288.5.57.57 0 01-.245.451 2 2 0 01-.666.323 6 6 0 01-.984.195 10 10 0 01-1.185.067 4.46 4.46 0 01-2.432-.506 1.79 1.79 0 01-.745-1.593v-1.7h-1v1.886a3.5 3.5 0 00.184 1.157 2.07 2.07 0 00.655.925 3.4 3.4 0 001.274.618 7.7 7.7 0 002.038.226 9 9 0 001.88-.165 4.3 4.3 0 001.242-.441 1.9 1.9 0 00.692-.631 1.4 1.4 0 00.214-.722 1.5 1.5 0 00-.1-.508 1.3 1.3 0 00-.23-.404m33.207-4.873a3.6 3.6 0 00-1.567.347 4.8 4.8 0 00-1.292.9 6 6 0 00-.98 1.245 7.4 7.4 0 00-.643 1.361.94.94 0 01-.465-.1.66.66 0 01-.263-.269 1.1 1.1 0 01-.116-.422 6 6 0 01-.025-.557V55.26h-1v2.192a1.3 1.3 0 01-.074.484.53.53 0 01-.239.27 1.1 1.1 0 01-.447.116q-.282.025-.686.025h-1.359v-1.05a2.98 2.98 0 00-.668-2.063 2.36 2.36 0 00-1.855-.744 3.45 3.45 0 00-1.953.557 5 5 0 00-1.463 1.573v-6h-1v7.727h-1.39a1.2 1.2 0 01-.527-.1.8.8 0 01-.33-.269 1 1 0 01-.165-.422 3.3 3.3 0 01-.043-.557v-2.351h-1v2.8a1.4 1.4 0 01-.067.484.54.54 0 01-.208.27.8.8 0 01-.349.116 4 4 0 01-.5.025h-2.829q-.551 0-.71-.215a1.26 1.26 0 01-.159-.728v-6.784h-1v7.053a2.2 2.2 0 00.129.814 1.24 1.24 0 00.906.8 3 3 0 00.716.08h3.135a4 4 0 001.157-.147 1.1 1.1 0 00.692-.649 1.08 1.08 0 00.391.57 1.23 1.23 0 00.771.226h9.662q.539 0 .936-.03a3.2 3.2 0 00.68-.116 1.3 1.3 0 00.466-.239 1.1 1.1 0 00.294-.41q.073.148.165.294a.9.9 0 00.245.257 1.2 1.2 0 00.4.177 2.4 2.4 0 00.625.067h6.612v-2.064a2.94 2.94 0 00-.679-2.076 2.5 2.5 0 00-1.931-.729m-10.163 3.857h-4.934a6.4 6.4 0 01.484-.98 4.8 4.8 0 01.7-.912 3.8 3.8 0 01.906-.68 2.3 2.3 0 011.09-.27 1.9 1.9 0 01.826.16 1.5 1.5 0 01.545.429 1.6 1.6 0 01.294.643 3.5 3.5 0 01.086.79Zm11.755 0h-5a6 6 0 01.49-1.011 4.4 4.4 0 01.728-.912 3.9 3.9 0 01.93-.661 2.4 2.4 0 011.1-.257 2 2 0 01.814.147 1.36 1.36 0 01.545.416 1.7 1.7 0 01.3.643 3.4 3.4 0 01.092.814Zm4.972-5.942v5.939h-2.755v1.016h6.955v-8.743h-1v7.726h-2.192v-5.938Zm5.914-1.785h1.004v8.743h-1.004zm7.225 7.537a1.16 1.16 0 01-.281-.79 1.2 1.2 0 01.055-.361.8.8 0 01.184-.318 1 1 0 01.319-.226 1.1 1.1 0 01.471-.086 2.2 2.2 0 01.87.159v-.955a2 2 0 00-.355-.067 5 5 0 00-.612-.03 2 2 0 00-.667.116 1.7 1.7 0 00-.576.343 1.7 1.7 0 00-.4.576 2 2 0 00-.153.814 1.72 1.72 0 00.4 1.152h-.894v.881h3.686v-.881h-1.153a1.13 1.13 0 01-.894-.327m7.952-4.525a2 2 0 00-.153.226 2 2 0 00-.135.281 1 1 0 00-.074.3 12 12 0 011.322.74 11 11 0 011.133.833 5 5 0 01.8.832 1.3 1.3 0 01.3.729.63.63 0 01-.3.612 1.6 1.6 0 01-.753.16h-4.934q-.551 0-.71-.215a1.25 1.25 0 01-.16-.728v-6.784h-1v7.053a2.2 2.2 0 00.128.814 1.3 1.3 0 00.356.52 1.3 1.3 0 00.551.275 3 3 0 00.716.08h5.033a2.7 2.7 0 001.041-.171 1.66 1.66 0 00.624-.429 1.4 1.4 0 00.3-.563 2.2 2.2 0 00.08-.563 2.1 2.1 0 00-.165-.777 3.1 3.1 0 00-.545-.851 7.3 7.3 0 00-.98-.918 13 13 0 00-1.457-.98l3.6-1.592v-.992l-4.482 1.972a1 1 0 00-.136.136m8.449 4.586a1.9 1.9 0 01-.79.129H160.4v1.016h1.862q.294 0 .588-.024a2.3 2.3 0 00.557-.117 1.4 1.4 0 00.477-.288 1.44 1.44 0 00.349-.526 2.3 2.3 0 00.686.747 1.6 1.6 0 00.845.208h2.914v-8.743h-1v7.727h-1.916a.6.6 0 01-.325-.092 1.4 1.4 0 01-.318-.275 3.5 3.5 0 01-.349-.477q-.184-.294-.429-.7l-1.469-2.437-.942.587 1.3 1.923a5 5 0 01.306.5 1 1 0 01.122.465.405.405 0 01-.276.377m7.01-7.598h1.004v8.743h-1.004zm6.82 9.803a3.9 3.9 0 00.246-1.5v-1.151a6.5 6.5 0 00-.117-1.28 2.9 2.9 0 00-.385-1 1.9 1.9 0 00-.717-.661 2.3 2.3 0 00-1.1-.239 2.35 2.35 0 00-1.041.221 2.25 2.25 0 00-.759.587 2.6 2.6 0 00-.466.839 3 3 0 00-.159.962 2.6 2.6 0 00.177 1.028 1.74 1.74 0 00.477.667 1.8 1.8 0 00.711.361 3.4 3.4 0 00.887.11 3 3 0 00.882-.11 2.6 2.6 0 00.575-.245v.233a1.75 1.75 0 01-.2.894 1.26 1.26 0 01-.545.5 2.4 2.4 0 01-.832.221q-.484.048-1.072.049h-.379v1.016h.514a8 8 0 001.482-.122 2.64 2.64 0 001.114-.459 2.16 2.16 0 00.707-.921m-.783-2.43a1.8 1.8 0 01-.539.269 2.5 2.5 0 01-.82.122 1.55 1.55 0 01-.992-.3 1.2 1.2 0 01-.38-1 1.8 1.8 0 01.08-.526 1.5 1.5 0 01.245-.49 1.3 1.3 0 01.429-.367 1.3 1.3 0 01.643-.147 1.15 1.15 0 011.041.57 1.9 1.9 0 01.226.631 4.3 4.3 0 01.067.784Zm17.736-12.208h-1.041v1.273l1.041-.6Zm-1.592 0h-1.041v1.273l1.041-.6Zm-9.6-9.196h-1.04v1.273l1.041-.6Zm-1.591 0h-1.041v1.273l1.041-.6Zm-47.976 0h-1.041v1.273l1.041-.6Zm-1.591 0h-1.041v1.273l1.041-.6Zm8.289 9.184h-1.041v1.273l1.041-.6Zm-1.592 0h-1.041v1.273l1.041-.6Zm-24.599 0h-1.041v1.273l1.041-.6Zm-1.591 0h-1.041v1.273l1.041-.6Zm4.624 0h-1.041v1.273l1.041-.6Zm46.024 6.169h-1.041v1.273l1.041-.6Zm-54.187 0h-1.041v1.273l1.041-.6ZM92.558 37.879h-1.041v1.273l1.041-.6Zm-1.592 0h-1.041v1.273l1.041-.6Zm.577 25.146h-1.041v1.273l1.041-.6Zm-1.592 0H88.91v1.273l1.041-.6Zm14.632-25.869h-1.041v1.273l1.041-.6ZM126.418.964h-11.4v27.583h11.4c9.477 0 15.8-5.51 15.8-13.791S135.895.964 126.418.964m0 21.341h-3.312v-15.1h3.312c4.431 0 7.437 2.97 7.437 7.554s-3.005 7.546-7.437 7.546M163.674.964h-12.173l-8.632 27.583h8.745l1.569-5.393 7.674-4.431h-6.511l3.239-10.709 3.272 10.709 2.7 9.823h8.749Zm43.904 0h-12.173l-8.632 27.583h8.749l1.569-5.393 7.674-4.431h-6.511l3.239-10.709 3.272 10.709 2.7 9.823h8.749Zm-32.224 4.825v22.758h8.358V.964Zm-75.71 5.346c-3.047-.346-5.357-.656-5.357-2.62 0-1.465 1.618-2.543 3.968-2.543 2.733 0 4.771 1.537 4.737 3.654l6.222-3.592C107.543 2.389 103.346.001 97.986.001c-6.9 0-11.792 3.775-11.792 9.441 0 6.511 5.32 7.936 11.018 8.591 2.93.382 5.357.693 5.357 2.7 0 1.654-1.618 2.813-4.045 2.813-3 0-5.2-1.73-5.239-4.072v-.012h-7.244a9.2 9.2 0 00.781 3.743c1.69 3.8 5.98 6.31 11.432 6.31 7.28 0 12.4-4 12.4-9.86.004-6.516-5.501-7.94-11.01-8.52M92.834 69.97a3.3 3.3 0 00-.894-.447q-.5-.165-1.029-.288t-1.028-.227a5.3 5.3 0 01-.9-.263 1.8 1.8 0 01-.637-.411.9.9 0 01-.239-.655 1.4 1.4 0 01.165-.716 1.3 1.3 0 01.441-.46 1.9 1.9 0 01.631-.245 3.6 3.6 0 01.722-.074 2.47 2.47 0 011.488.422 1.83 1.83 0 01.68 1.365h1.1a3 3 0 00-.282-1.243 2.5 2.5 0 00-.685-.863 2.8 2.8 0 00-1-.5 4.7 4.7 0 00-1.249-.16 4.5 4.5 0 00-1.169.153 3.2 3.2 0 00-1.017.465 2.36 2.36 0 00-.716.8 2.3 2.3 0 00-.27 1.145 1.9 1.9 0 00.239.991 2 2 0 00.637.649 3.6 3.6 0 00.9.41q.5.154 1.028.263t1.029.226a5 5 0 01.894.294 1.8 1.8 0 01.631.46 1.1 1.1 0 01.239.735 1.34 1.34 0 01-.711 1.267 2.3 2.3 0 01-.716.251 4.4 4.4 0 01-.79.074 3.7 3.7 0 01-.961-.122 2.4 2.4 0 01-.808-.38 1.9 1.9 0 01-.777-1.6h-1.1a3.1 3.1 0 00.288 1.378 2.7 2.7 0 00.784.961 3.4 3.4 0 001.151.563 5.2 5.2 0 002.6.036 3.6 3.6 0 001.1-.459 2.6 2.6 0 00.8-.808 2.48 2.48 0 00.074-2.265 2.14 2.14 0 00-.643-.722m7.108 3.245a2.4 2.4 0 01-.043-.539v-3.257a1.7 1.7 0 00-.208-.894 1.47 1.47 0 00-.551-.532 2.2 2.2 0 00-.766-.251 6 6 0 00-.851-.061 4.5 4.5 0 00-1 .11 2.5 2.5 0 00-.845.361 1.86 1.86 0 00-.588.656 2.25 2.25 0 00-.245.991h1.041a1.07 1.07 0 01.477-.949 2.2 2.2 0 011.1-.251 3.5 3.5 0 01.5.036 1.4 1.4 0 01.453.147.9.9 0 01.33.318 1.04 1.04 0 01.129.551.57.57 0 01-.171.447 1.1 1.1 0 01-.465.233 4.6 4.6 0 01-.68.122q-.386.042-.815.129a7 7 0 00-.79.189 2.4 2.4 0 00-.686.325 1.55 1.55 0 00-.484.551 1.86 1.86 0 00-.184.882 1.8 1.8 0 00.165.814 1.5 1.5 0 00.447.551 1.8 1.8 0 00.667.312 3.3 3.3 0 00.814.1 3.2 3.2 0 001.231-.233 2.55 2.55 0 001-.747 1 1 0 00.239.747.88.88 0 00.643.233 1.43 1.43 0 00.747-.171v-.808a1 1 0 01-.319.061q-.25-.002-.292-.173m-1.083-1.262a1.2 1.2 0 01-.111.472 1.4 1.4 0 01-.343.465 1.9 1.9 0 01-.6.355 2.5 2.5 0 01-.882.141 2.2 2.2 0 01-.465-.049 1.1 1.1 0 01-.386-.16.9.9 0 01-.27-.288.85.85 0 01-.1-.435 1.04 1.04 0 01.1-.49 1 1 0 01.276-.325 1.4 1.4 0 01.4-.2 4 4 0 01.49-.122q.257-.049.533-.08a7 7 0 00.986-.174 1.1 1.1 0 00.367-.171Zm6.856-.548a2.6 2.6 0 01-.116.79 1.8 1.8 0 01-.349.631 1.55 1.55 0 01-.582.416 2.1 2.1 0 01-.826.147 1.27 1.27 0 01-.943-.343 1.26 1.26 0 01-.343-.93V67.83h-1.041v4.163a4 4 0 00.1.936 1.8 1.8 0 00.361.728 1.7 1.7 0 00.673.478 2.8 2.8 0 001.041.171 2.5 2.5 0 001.207-.282 2.16 2.16 0 00.851-.869h.024v1h.98v-6.33h-1.037Zm7.227-2.734h-.024a1.7 1.7 0 00-.422-.472 2.5 2.5 0 00-.533-.306 2.7 2.7 0 00-.563-.165 3 3 0 00-.527-.049 2.9 2.9 0 00-1.267.263 2.6 2.6 0 00-.906.716 3.1 3.1 0 00-.539 1.047 4.4 4.4 0 00-.177 1.267 4.3 4.3 0 00.184 1.273 3.2 3.2 0 00.545 1.059 2.6 2.6 0 00.907.729 2.86 2.86 0 001.28.27 3 3 0 001.212-.239 1.56 1.56 0 00.808-.766h.024v.857h1.041v-8.743h-1.043Zm-.067 3.2a2.3 2.3 0 01-.336.765 1.72 1.72 0 01-1.494.753 1.86 1.86 0 01-.875-.2 1.74 1.74 0 01-.612-.526 2.3 2.3 0 01-.356-.753 3.3 3.3 0 01-.116-.863 4.2 4.2 0 01.1-.906 2.4 2.4 0 01.319-.784 1.7 1.7 0 01.581-.551 1.8 1.8 0 01.9-.208 1.9 1.9 0 01.918.2 1.8 1.8 0 01.618.532 2.2 2.2 0 01.349.765 3.7 3.7 0 01.006 1.77Zm2.771-4.044h1.041v6.331h-1.041zm9.232-2.413h-3v8.743h3a5.2 5.2 0 001.886-.306 3.3 3.3 0 001.31-.887 3.65 3.65 0 00.759-1.433 7 7 0 00.245-1.953 4.12 4.12 0 00-1.09-3.135 4.36 4.36 0 00-3.11-1.029m2.871 5.7a3.3 3.3 0 01-.422.949 2.2 2.2 0 01-.582.6 3 3 0 01-.655.336 2.8 2.8 0 01-.625.147q-.294.03-.49.03h-1.938v-6.784h1.959a3.5 3.5 0 011.359.233 2.3 2.3 0 01.9.661 2.65 2.65 0 01.5 1.047 6 6 0 01.153 1.4 5 5 0 01-.159 1.381m7.58 2.101a2.4 2.4 0 01-.043-.539v-3.257a1.7 1.7 0 00-.208-.894 1.47 1.47 0 00-.551-.532 2.2 2.2 0 00-.765-.251 6 6 0 00-.851-.061 4.5 4.5 0 00-1 .11 2.5 2.5 0 00-.845.361 1.86 1.86 0 00-.588.656 2.25 2.25 0 00-.245.991h1.041a1.07 1.07 0 01.478-.949 2.2 2.2 0 011.1-.251 3.5 3.5 0 01.5.036 1.4 1.4 0 01.453.147.9.9 0 01.331.318 1.04 1.04 0 01.129.551.57.57 0 01-.172.447 1.1 1.1 0 01-.465.233 4.6 4.6 0 01-.68.122q-.386.042-.814.129a7 7 0 00-.79.189 2.4 2.4 0 00-.686.325 1.56 1.56 0 00-.484.551 1.86 1.86 0 00-.184.882 1.8 1.8 0 00.166.814 1.5 1.5 0 00.446.551 1.8 1.8 0 00.667.312 3.3 3.3 0 00.815.1 3.2 3.2 0 001.231-.233 2.55 2.55 0 001-.747 1 1 0 00.239.747.88.88 0 00.643.233 1.43 1.43 0 00.747-.171v-.808a1 1 0 01-.319.061c-.171-.002-.265-.059-.296-.173m-1.083-1.262a1.2 1.2 0 01-.11.472 1.4 1.4 0 01-.343.465 1.8 1.8 0 01-.6.355 2.5 2.5 0 01-.882.141 2.2 2.2 0 01-.465-.049 1.1 1.1 0 01-.386-.16.9.9 0 01-.269-.288.85.85 0 01-.1-.435 1 1 0 01.1-.49 1 1 0 01.275-.325 1.3 1.3 0 01.4-.2 4 4 0 01.49-.122q.257-.049.532-.08a7 7 0 00.986-.174 1.1 1.1 0 00.367-.171Zm4.102-6.024h-1.042v1.9h-1.079v.918h1.077v4.028a2.4 2.4 0 00.086.71.86.86 0 00.263.416 1 1 0 00.465.2 3.7 3.7 0 00.692.055h.8v-.918h-.483a3 3 0 01-.4-.019.5.5 0 01-.239-.079.3.3 0 01-.116-.171 1.1 1.1 0 01-.03-.294v-3.93h1.261v-.918h-1.261Zm7.413 7.286a2.4 2.4 0 01-.043-.539v-3.257a1.7 1.7 0 00-.208-.894 1.5 1.5 0 00-.551-.532 2.2 2.2 0 00-.765-.251 6 6 0 00-.851-.061 4.5 4.5 0 00-1 .11 2.5 2.5 0 00-.845.361 1.86 1.86 0 00-.587.656 2.24 2.24 0 00-.246.991h1.041a1.07 1.07 0 01.478-.949 2.2 2.2 0 011.1-.251 3.5 3.5 0 01.5.036 1.4 1.4 0 01.453.147.9.9 0 01.331.318 1.04 1.04 0 01.129.551.57.57 0 01-.172.447 1.1 1.1 0 01-.465.233 4.6 4.6 0 01-.68.122q-.386.042-.815.129a7 7 0 00-.79.189 2.4 2.4 0 00-.685.325 1.56 1.56 0 00-.484.551 1.86 1.86 0 00-.184.882 1.8 1.8 0 00.166.814 1.5 1.5 0 00.446.551 1.8 1.8 0 00.668.312 3.3 3.3 0 00.814.1 3.2 3.2 0 001.231-.233 2.55 2.55 0 001-.747 1 1 0 00.239.747.88.88 0 00.642.233 1.43 1.43 0 00.747-.171v-.808a1 1 0 01-.319.061q-.252-.002-.295-.173m-1.084-1.262a1.2 1.2 0 01-.11.472 1.4 1.4 0 01-.343.465 1.8 1.8 0 01-.6.355 2.5 2.5 0 01-.882.141 2.2 2.2 0 01-.465-.049 1.1 1.1 0 01-.386-.16.9.9 0 01-.269-.288.85.85 0 01-.1-.435 1 1 0 01.1-.49 1 1 0 01.275-.325 1.3 1.3 0 01.4-.2 4 4 0 01.49-.122q.257-.049.532-.08a7 7 0 00.986-.174 1.1 1.1 0 00.367-.171Zm11.708-.288a4 4 0 00.165-.46 4 4 0 00.11-.508q.042-.276.08-.667h-.992a4.6 4.6 0 01-.282 1.359l-1.579-1.922a5.4 5.4 0 00.612-.411 3.3 3.3 0 00.527-.508 2.3 2.3 0 00.367-.618 2 2 0 00.135-.729 1.65 1.65 0 00-.178-.778 1.7 1.7 0 00-.471-.563 2 2 0 00-.68-.337 3 3 0 00-.79-.11 2.3 2.3 0 00-.845.147 1.8 1.8 0 00-.618.4 1.7 1.7 0 00-.38.576 1.8 1.8 0 00-.129.68 2.1 2.1 0 00.08.6 2.2 2.2 0 00.22.5q.142.233.312.465c.17.232.233.318.355.49a9 9 0 00-.79.471 3.4 3.4 0 00-.649.563 2.6 2.6 0 00-.441.7 2.3 2.3 0 00-.165.906 3 3 0 00.091.673 2 2 0 00.386.784 2.4 2.4 0 00.832.655 3.1 3.1 0 001.421.276 3.3 3.3 0 00.717-.08 3.2 3.2 0 00.685-.232 2.7 2.7 0 00.6-.386 2.4 2.4 0 00.471-.539l.931 1.09h1.359l-1.7-1.972q.133-.287.233-.515m-3.6-5.106a1.18 1.18 0 01.69-.226 1 1 0 01.739.275.9.9 0 01.272.656 1.1 1.1 0 01-.111.508 1.7 1.7 0 01-.283.411 2.4 2.4 0 01-.382.33q-.21.148-.394.27l-.3-.367q-.148-.184-.271-.374a2.3 2.3 0 01-.2-.386 1 1 0 01-.08-.391.8.8 0 01.321-.706Zm1.412 6.545a2.05 2.05 0 01-1.071.282 1.8 1.8 0 01-.618-.11 1.8 1.8 0 01-.532-.3 1.4 1.4 0 01-.374-.465 1.3 1.3 0 01-.141-.606 1.7 1.7 0 01.122-.68 1.9 1.9 0 01.331-.52 2.5 2.5 0 01.484-.417q.276-.184.581-.355l2.008 2.413a2.44 2.44 0 01-.788.753Zm10.207-7.69-3.416 8.743h1.2l.98-2.633h3.7l.955 2.633h1.286l-3.416-8.743Zm-.87 5.13 1.482-4.077h.025l1.457 4.077Zm6.478-5.13h1.163v8.743h-1.163zm8.9 0-3.416 8.743h1.2l.98-2.633h3.7l.955 2.633h1.281l-3.416-8.743Zm-.87 5.13 1.482-4.077h.025l1.463 4.078Zm10.46.861a2.6 2.6 0 01-.116.79 1.8 1.8 0 01-.349.631 1.55 1.55 0 01-.582.416 2.1 2.1 0 01-.826.147 1.27 1.27 0 01-.943-.343 1.26 1.26 0 01-.343-.93V67.83h-1.041v4.163a4 4 0 00.1.936 1.8 1.8 0 00.361.728 1.7 1.7 0 00.674.478 2.8 2.8 0 001.041.171 2.5 2.5 0 001.206-.282 2.16 2.16 0 00.851-.869h.024v1h.98v-6.33h-1.041Zm4.053-5.476h-1.041v1.9h-1.079v.918h1.077v4.028a2.4 2.4 0 00.086.71.86.86 0 00.263.416 1 1 0 00.466.2 3.7 3.7 0 00.691.055h.8v-.918h-.483a3 3 0 01-.4-.019.5.5 0 01-.239-.079.3.3 0 01-.116-.171 1.1 1.1 0 01-.031-.294v-3.93h1.261v-.918h-1.255Zm7.188 2.399a1.7 1.7 0 00-.673-.477 2.8 2.8 0 00-1.042-.171 3 3 0 00-.581.061 2.4 2.4 0 00-.57.19 2 2 0 00-.5.336 1.45 1.45 0 00-.349.49h-.024v-3.343h-1.042v8.743h1.042v-3.575a2.6 2.6 0 01.116-.79 1.8 1.8 0 01.349-.63 1.54 1.54 0 01.581-.416 2.1 2.1 0 01.827-.147 1.27 1.27 0 01.942.343 1.26 1.26 0 01.343.931v4.286h1.041v-4.163a4 4 0 00-.1-.937 1.8 1.8 0 00-.36-.731m7.053.313a2.8 2.8 0 00-.967-.7 3.54 3.54 0 00-2.651 0 2.8 2.8 0 00-.961.7 2.95 2.95 0 00-.587 1.053 4.2 4.2 0 00-.2 1.3 4.2 4.2 0 00.2 1.3 2.95 2.95 0 00.587 1.046 2.8 2.8 0 00.961.7 3.54 3.54 0 002.651 0 2.8 2.8 0 00.967-.7 3 3 0 00.588-1.046 4.2 4.2 0 00.2-1.3 4.2 4.2 0 00-.2-1.3 3 3 0 00-.588-1.053m-.471 3.38a2.2 2.2 0 01-.422.747 1.8 1.8 0 01-.631.459 1.9 1.9 0 01-1.531 0 1.8 1.8 0 01-.631-.459 2.15 2.15 0 01-.422-.747 3.5 3.5 0 010-2.045 2.2 2.2 0 01.422-.753 1.8 1.8 0 01.631-.466 1.92 1.92 0 011.531 0 1.8 1.8 0 01.631.466 2.2 2.2 0 01.422.753 3.5 3.5 0 010 2.045m3.446-2.86h-.024v-1.335h-.98v6.33h1.041V71.34a4.3 4.3 0 01.122-1.077 2.1 2.1 0 01.391-.808 1.7 1.7 0 01.711-.5 3 3 0 011.065-.171v-1.1a2.34 2.34 0 00-1.4.343 2.8 2.8 0 00-.926 1.134m3.171-1.334h1.041v6.331h-1.041zm4.102-1.898h-1.041v1.9h-1.078v.918h1.077v4.028a2.4 2.4 0 00.086.71.86.86 0 00.263.416 1 1 0 00.465.2 3.7 3.7 0 00.692.055h.8v-.918h-.483a3 3 0 01-.4-.019.5.5 0 01-.239-.079.3.3 0 01-.116-.171 1.1 1.1 0 01-.031-.294v-3.93h1.262v-.918h-1.262Zm6.551 1.898-1.776 5.179h-.025l-1.848-5.179h-1.175l2.51 6.294-.429 1.077a1.24 1.24 0 01-.343.429.83.83 0 01-.514.147 1 1 0 01-.312-.049l-.3-.1v.956a2 2 0 00.355.085 3 3 0 00.367.025 1.9 1.9 0 00.612-.092 1.3 1.3 0 00.477-.294 2.2 2.2 0 00.386-.52 7 7 0 00.361-.784l2.755-7.175Zm-106.908-2.413h-1.041v1.273l1.041-.6Zm97.296 0h-1.041v1.273l1.041-.6ZM86.754 44.167a1.9 1.9 0 00.759.312 6 6 0 001.182.1h7.42v-4.714h-1v3.7H89.2q-.587 0-.967-.037a1.6 1.6 0 01-.6-.153.66.66 0 01-.312-.343 1.7 1.7 0 01-.091-.607v-1.533h-1v1.9a2.4 2.4 0 00.122.827 1.2 1.2 0 00.402.548m11.56.052a1.3 1.3 0 00.551.275 3 3 0 00.717.08h5.02V39.86h-1v3.7h-3.894q-.551 0-.711-.215a1.26 1.26 0 01-.159-.729v-6.784h-1v7.053a2.2 2.2 0 00.129.814 1.3 1.3 0 00.347.52m8.474 0a1.3 1.3 0 00.551.275 3 3 0 00.716.08h3.135a4 4 0 001.157-.147 1.1 1.1 0 00.691-.649 1.08 1.08 0 00.392.57 1.2 1.2 0 00.768.226h1.006a4 4 0 001.157-.147 1.1 1.1 0 00.692-.649 1.08 1.08 0 00.391.57 1.23 1.23 0 00.771.226h.87a4.4 4.4 0 001.243-.147 1.1 1.1 0 00.7-.649 1.1 1.1 0 00.385.57 1.2 1.2 0 00.765.226h2.926v-8.743h-1v7.727h-1.91a.91.91 0 01-.8-.361 1.7 1.7 0 01-.251-.986v-6.38h-1v6.832a1.4 1.4 0 01-.067.484.6.6 0 01-.183.27.6.6 0 01-.288.116 3 3 0 01-.391.025h-.98a1.2 1.2 0 01-.527-.1.8.8 0 01-.33-.269 1 1 0 01-.165-.422 3.3 3.3 0 01-.043-.557v-2.351h-1v2.8a1.4 1.4 0 01-.067.484.54.54 0 01-.208.27.8.8 0 01-.349.116 4 4 0 01-.5.025h-.824a1.2 1.2 0 01-.523-.1.8.8 0 01-.33-.269 1 1 0 01-.166-.422 3.4 3.4 0 01-.043-.557v-2.351h-1v2.8a1.4 1.4 0 01-.067.484.54.54 0 01-.208.27.8.8 0 01-.349.116 4 4 0 01-.5.025h-2.829q-.551 0-.71-.215a1.25 1.25 0 01-.16-.729v-6.784h-1v7.053a2.2 2.2 0 00.129.814 1.3 1.3 0 00.323.53m23.448-1.054a2.2 2.2 0 00.735.31 3.2 3.2 0 00.68.085 3.9 3.9 0 001.261-.221 1.4 1.4 0 00.208.6 1.3 1.3 0 00.386.378 1.5 1.5 0 00.514.2 3 3 0 00.606.056h5.143v-4.714h-1v3.7l-4.016-.012q-.551 0-.71-.213a1.25 1.25 0 01-.159-.724v-3.5h-1.957a3.4 3.4 0 00-.887.122 2.3 2.3 0 00-.815.4 2.1 2.1 0 00-.6.724 2.35 2.35 0 00-.232 1.1 2.05 2.05 0 00.245 1.066 1.9 1.9 0 00.598.643m.557-2.734a1.67 1.67 0 011-.3h1.077v2.168a3 3 0 01-.557.158 3 3 0 01-.581.061 1.44 1.44 0 01-1.035-.317 1.1 1.1 0 01-.324-.828 1.08 1.08 0 01.42-.943Zm14.302 3.766a1.27 1.27 0 00.4-.967 1.5 1.5 0 00-.116-.557 6 6 0 00-.349-.691q-.233-.4-.594-.98t-.851-1.421l-.943.587q.624.918.986 1.457t.551.833a2.6 2.6 0 01.239.429.8.8 0 01.049.257.43.43 0 01-.11.288q-.11.128-.526.129h-2.841v1.016h2.926a1.66 1.66 0 001.179-.38m25.844-.636h-1.926a1.2 1.2 0 01-.523-.1.8.8 0 01-.33-.269 1 1 0 01-.165-.422 3.3 3.3 0 01-.043-.557v-2.351h-1v2.8a1.4 1.4 0 01-.067.484.6.6 0 01-.19.27.6.6 0 01-.294.116 3 3 0 01-.38.025 1.5 1.5 0 01-.594-.1.85.85 0 01-.356-.269 1 1 0 01-.171-.422 3.3 3.3 0 01-.043-.557V40.47h-1v2.192a1.4 1.4 0 01-.067.484.55.55 0 01-.2.27.74.74 0 01-.331.116 4 4 0 01-.465.025 1.9 1.9 0 01-.68-.1.9.9 0 01-.386-.269.87.87 0 01-.171-.422 4 4 0 01-.037-.557V40.47h-1v2.192a1.3 1.3 0 01-.074.484.53.53 0 01-.239.27 1.1 1.1 0 01-.447.116q-.282.025-.686.025h-2.135a3 3 0 01-.612-.049 3.9 3.9 0 001.035-1.041 2.26 2.26 0 00.386-1.262 1.3 1.3 0 00-.129-.557 1.4 1.4 0 00-.391-.49 2 2 0 00-.661-.343 3 3 0 00-.937-.129 3.1 3.1 0 00-1.207.233 2.9 2.9 0 00-.949.625 1 1 0 00-.141.19 3.8 3.8 0 00-.349.826l1.531 1.739a5 5 0 01-.87.2 7 7 0 01-.918.061h-1.42v-.576a6.4 6.4 0 00-.123-1.31 2.9 2.9 0 00-.4-1 1.9 1.9 0 00-.716-.643 2.34 2.34 0 00-1.078-.226 2.2 2.2 0 00-1.022.226 2.4 2.4 0 00-.759.594 2.6 2.6 0 00-.477.845 3 3 0 00-.165.98 2.5 2.5 0 00.177 1 1.7 1.7 0 00.49.655 1.9 1.9 0 00.735.361 3.7 3.7 0 00.925.11h1.383a1.5 1.5 0 01-.214.8 1.3 1.3 0 01-.551.471 2.6 2.6 0 01-.827.221 9 9 0 01-1.053.055h-.379v1.016h.514a7.4 7.4 0 001.4-.122 3 3 0 001.084-.416 2.1 2.1 0 00.716-.784 3 3 0 00.312-1.237h1.493a6.3 6.3 0 001.274-.129 7 7 0 001.2-.361 1.8 1.8 0 00.68.4 2.5 2.5 0 00.68.091h2.433q.539 0 .925-.03a2.6 2.6 0 00.649-.122 1.2 1.2 0 00.429-.245 1.2 1.2 0 00.276-.411 2 2 0 00.184.294 1.1 1.1 0 00.294.263 1.5 1.5 0 00.471.184 3.2 3.2 0 00.716.067 3.6 3.6 0 001.1-.147 1.1 1.1 0 00.679-.649 1.6 1.6 0 00.166.276 1 1 0 00.288.257 1.7 1.7 0 00.46.19 2.7 2.7 0 00.679.074 3 3 0 00.356-.03 2 2 0 00.429-.116 1.6 1.6 0 00.416-.239 1 1 0 00.306-.41 1.08 1.08 0 00.391.57 1.23 1.23 0 00.772.226h2.926V35.84h-1Zm-20.669 0h-1.31a1.65 1.65 0 01-1.059-.294 1.12 1.12 0 01-.361-.918 2 2 0 01.085-.563 1.7 1.7 0 01.251-.508 1.3 1.3 0 01.422-.367 1.26 1.26 0 01.613-.141 1.11 1.11 0 011.053.539 2.9 2.9 0 01.306 1.445Zm5.155-.625-1.494-1.579a1.85 1.85 0 01.692-.515 2.2 2.2 0 01.925-.2 1.45 1.45 0 01.9.227.65.65 0 01.288.508 1.27 1.27 0 01-.361.857 3.1 3.1 0 01-.946.702Zm18.237-7.102h1.004v8.743h-1.004zm16.507 1.959h-.845a.81.81 0 01-.637-.233.83.83 0 01-.208-.576.8.8 0 01.178-.5.68.68 0 01.569-.226 1.7 1.7 0 01.637.11v-.661a2 2 0 00-.263-.061 2.4 2.4 0 00-.447-.036 1.4 1.4 0 00-.49.085 1.3 1.3 0 00-.416.251 1.2 1.2 0 00-.294.416 1.5 1.5 0 00-.11.594 1.27 1.27 0 00.281.832h-.625v.649h2.67Z"/>
</svg>
